<svg width="205" height="48" viewBox="0 0 205 48" fill="none" xmlns="http://www.w3.org/2000/svg">
<g clip-path="url(#clip0_2161_5150)">
<mask id="mask0_2161_5150" style="mask-type:luminance" maskUnits="userSpaceOnUse" x="0" y="0" width="205" height="48">
<path d="M205 0H0V48H205V0Z" fill="white"/>
</mask>
<g mask="url(#mask0_2161_5150)">
<path d="M204.247 26.8069C204.035 26.2562 203.703 25.752 203.404 25.2382C201.321 21.6333 199.24 18.0284 197.146 14.4312C196.404 13.1611 195.389 12.1624 194.034 11.5419C193.063 11.0959 192.032 10.933 190.972 10.931C188.802 10.9291 186.632 10.931 184.461 10.931C182.291 10.931 180.12 10.9369 177.95 10.931C177.047 10.931 176.185 11.0804 175.345 11.4197C173.86 12.0208 172.619 12.9187 171.808 14.3246C171.462 14.9199 171.121 15.5171 170.775 16.1144C172.542 19.1531 174.3 22.1956 176.059 25.2401C176.356 25.754 176.69 26.2601 176.9 26.8089C177.653 28.7713 177.595 30.724 176.63 32.605C176.114 33.6153 175.516 34.5849 174.947 35.5681C173.551 37.9804 172.153 40.3927 170.756 42.8031C171.097 43.3964 171.433 43.9918 171.777 44.5832C172.417 45.6943 173.355 46.4894 174.471 47.0925C175.545 47.6742 176.669 48.0019 177.913 47.9942C182.25 47.967 186.585 47.9806 190.922 47.9864C191.751 47.9864 192.545 47.8546 193.323 47.5598C194.934 46.949 196.256 45.991 197.132 44.4785C198.854 41.5077 200.574 38.5388 202.294 35.5661C202.863 34.583 203.461 33.6134 203.977 32.6031C204.942 30.7221 205 28.7694 204.247 26.8069Z" fill="#424C86"/>
<path d="M165.002 32.8901C164.283 31.6607 164.076 30.3362 164.173 28.9439C164.252 27.8192 164.625 26.7837 165.184 25.8121C167.046 22.5776 168.908 19.3431 170.775 16.1105C170.451 15.5501 170.127 14.9897 169.801 14.4293C169.059 13.1591 168.044 12.1605 166.691 11.5399C165.718 11.0939 164.689 10.9291 163.629 10.9291C161.459 10.9272 159.288 10.9291 157.118 10.9291C154.946 10.9291 152.777 10.933 150.607 10.9291C149.706 10.9272 148.842 11.0784 148.002 11.4178C146.517 12.0189 145.276 12.9167 144.465 14.3226C144.119 14.9199 143.776 15.5171 143.432 16.1144C145.199 19.1531 146.957 22.1956 148.718 25.2382C149.015 25.752 149.347 26.2582 149.559 26.8089C150.312 28.7713 150.254 30.724 149.289 32.605C148.771 33.6153 148.175 34.583 147.606 35.5661C146.21 37.9804 144.812 40.3907 143.415 42.8031C143.756 43.3964 144.09 43.9898 144.434 44.5832C145.076 45.6924 146.012 46.4875 147.13 47.0925C148.204 47.6742 149.328 48.0019 150.572 47.9942C154.909 47.967 159.242 47.9806 163.579 47.9864C164.41 47.9864 165.204 47.8546 165.982 47.5598C167.593 46.9509 168.915 45.993 169.791 44.4785C170.115 43.92 170.437 43.3615 170.762 42.8031C170.719 42.7274 170.674 42.6518 170.631 42.5762C168.758 39.3455 166.891 36.1149 165.006 32.892" fill="#804F99"/>
<path d="M176.63 32.6011C177.595 30.7202 177.653 28.7674 176.9 26.805C176.69 26.2543 176.356 25.7501 176.059 25.2362C174.3 22.1937 172.542 19.1492 170.773 16.1105C168.908 19.3431 167.044 22.5776 165.182 25.8121C164.621 26.7837 164.249 27.8172 164.171 28.9439C164.074 30.3362 164.282 31.6606 165 32.8881C166.885 36.111 168.752 39.3436 170.626 42.5723C170.668 42.6479 170.713 42.7235 170.756 42.8011C172.153 40.3888 173.551 37.9765 174.947 35.5642C175.516 34.581 176.114 33.6114 176.63 32.6011Z" fill="#633088"/>
<path d="M137.655 32.8901C136.937 31.6607 136.729 30.3362 136.826 28.9439C136.905 27.8192 137.278 26.7837 137.837 25.8121C139.699 22.5776 141.561 19.3431 143.428 16.1105C143.104 15.5501 142.78 14.9897 142.454 14.4293C141.712 13.1591 140.697 12.1605 139.344 11.5399C138.371 11.0939 137.342 10.9291 136.282 10.9291C134.112 10.9272 131.942 10.9291 129.771 10.9291C127.599 10.9291 125.43 10.933 123.26 10.9291C122.359 10.9272 121.496 11.0784 120.655 11.4178C119.17 12.0189 117.929 12.9167 117.118 14.3226C116.772 14.9199 116.429 15.5171 116.085 16.1144C117.852 19.1531 119.611 22.1956 121.371 25.2382C121.668 25.752 122 26.2582 122.212 26.8089C122.965 28.7713 122.907 30.724 121.942 32.605C121.424 33.6153 120.826 34.583 120.259 35.5661C118.863 37.9804 117.465 40.3907 116.066 42.8031C116.409 43.3964 116.743 43.9898 117.087 44.5832C117.729 45.6924 118.665 46.4875 119.783 47.0925C120.857 47.6742 121.981 48.0019 123.225 47.9942C127.562 47.967 131.895 47.9806 136.232 47.9864C137.063 47.9864 137.857 47.8546 138.635 47.5598C140.246 46.9509 141.568 45.993 142.444 44.4785C142.768 43.92 143.09 43.3615 143.415 42.8031C143.372 42.7274 143.327 42.6518 143.285 42.5762C141.411 39.3455 139.544 36.1149 137.659 32.892" fill="#424C86"/>
<path d="M149.285 32.6011C150.25 30.7202 150.308 28.7674 149.555 26.805C149.343 26.2543 149.009 25.7501 148.712 25.2362C146.954 22.1937 145.195 19.1492 143.426 16.1105C141.561 19.3431 139.697 22.5776 137.835 25.8121C137.274 26.7837 136.903 27.8172 136.824 28.9439C136.727 30.3362 136.935 31.6606 137.653 32.8881C139.538 36.111 141.405 39.3436 143.279 42.5723C143.321 42.6479 143.366 42.7235 143.409 42.7992C144.806 40.3888 146.204 37.9765 147.6 35.5642C148.169 34.581 148.767 33.6114 149.283 32.6011" fill="#2A2F72"/>
<path d="M110.31 32.8901C109.592 31.6607 109.384 30.3362 109.481 28.9439C109.56 27.8192 109.933 26.7837 110.492 25.8121C112.354 22.5776 114.216 19.3431 116.083 16.1105C115.759 15.5501 115.433 14.9897 115.109 14.4293C114.367 13.1591 113.352 12.1605 111.999 11.5399C111.026 11.0939 109.997 10.9291 108.937 10.9291C106.767 10.9272 104.597 10.9291 102.426 10.9291C100.254 10.9291 98.0855 10.933 95.9151 10.9291C95.0144 10.9272 94.1505 11.0784 93.3099 11.4178C91.8249 12.0189 90.5844 12.9167 89.7729 14.3226C89.4274 14.9199 89.0838 15.5171 88.7401 16.1144C90.5067 19.1531 92.2655 22.1956 94.0263 25.2382C94.3233 25.752 94.6553 26.2582 94.8669 26.8089C95.6201 28.7713 95.5618 30.724 94.597 32.605C94.0787 33.6153 93.4808 34.583 92.9139 35.5661C91.5181 37.9804 90.1204 40.3907 88.7207 42.8031C89.0643 43.3964 89.3982 43.9898 89.7419 44.5832C90.3844 45.6924 91.3201 46.4875 92.4383 47.0925C93.5118 47.6742 94.6358 48.0019 95.8802 47.9942C100.217 47.967 104.55 47.9806 108.887 47.9864C109.718 47.9864 110.512 47.8546 111.29 47.5598C112.901 46.9509 114.223 45.993 115.099 44.4785C115.423 43.92 115.745 43.3615 116.07 42.8031C116.027 42.7274 115.982 42.6518 115.94 42.5762C114.066 39.3455 112.197 36.1149 110.314 32.892" fill="#804F99"/>
<path d="M121.938 32.6011C122.903 30.7202 122.961 28.7674 122.208 26.805C121.996 26.2543 121.662 25.7501 121.365 25.2362C119.607 22.1937 117.848 19.1492 116.079 16.1105C114.214 19.3431 112.35 22.5776 110.488 25.8121C109.927 26.7837 109.557 27.8172 109.477 28.9439C109.38 30.3362 109.588 31.6606 110.306 32.8881C112.191 36.111 114.058 39.3436 115.932 42.5723C115.974 42.6479 116.019 42.7235 116.062 42.7992C117.46 40.3888 118.857 37.9765 120.253 35.5642C120.822 34.581 121.42 33.6114 121.936 32.6011" fill="#633088"/>
<path d="M82.9629 32.8901C82.2446 31.6607 82.0369 30.3362 82.134 28.9439C82.2135 27.8192 82.5863 26.7837 83.1454 25.8121C85.0071 22.5776 86.8688 19.3431 88.7363 16.1105C88.4121 15.5501 88.0879 14.9897 87.7617 14.4293C87.0202 13.1591 86.0049 12.1605 84.6518 11.5399C83.6792 11.0939 82.6503 10.9291 81.5904 10.9291C79.42 10.9272 77.2497 10.9291 75.0793 10.9291C72.907 10.9291 70.7386 10.933 68.5682 10.9291C67.6675 10.9272 66.8036 11.0784 65.963 11.4178C64.4779 12.0189 63.2375 12.9167 62.426 14.3226C62.0805 14.9199 61.7368 15.5171 61.3932 16.1144C63.1598 19.1531 64.9186 22.1956 66.6794 25.2382C66.9764 25.752 67.3083 26.2582 67.5199 26.8089C68.2732 28.7713 68.2149 30.724 67.2501 32.605C66.7318 33.6153 66.1339 34.583 65.567 35.5661C64.1712 37.9804 62.7735 40.3907 61.3758 42.8031C61.7174 43.3964 62.0513 43.9898 62.3949 44.5832C63.0375 45.6924 63.9732 46.4875 65.0914 47.0925C66.1649 47.6742 67.2889 48.0019 68.5333 47.9942C72.8701 47.967 77.2031 47.9806 81.5399 47.9864C82.3708 47.9864 83.1648 47.8546 83.9432 47.5598C85.5545 46.9509 86.8765 45.993 87.752 44.4785C88.0762 43.92 88.3985 43.3615 88.7227 42.8031C88.68 42.7274 88.6353 42.6518 88.5926 42.5762C86.7193 39.3455 84.8518 36.1149 82.9668 32.892" fill="#424C86"/>
<path d="M94.5931 32.6011C95.558 30.7202 95.6162 28.7674 94.863 26.805C94.6514 26.2543 94.3175 25.7501 94.0205 25.2362C92.2617 22.1937 90.5029 19.1492 88.7343 16.1105C86.8688 19.3431 85.0051 22.5776 83.1434 25.8121C82.5824 26.7837 82.2116 27.8172 82.132 28.9439C82.035 30.3362 82.2427 31.6606 82.961 32.8881C84.8459 36.111 86.7135 39.3436 88.5868 42.5723C88.6295 42.6479 88.6742 42.7235 88.7169 42.8011C90.1146 40.3888 91.5123 37.9765 92.9081 35.5642C93.4769 34.581 94.0748 33.6114 94.5912 32.6011" fill="#2A2F72"/>
<path d="M55.6179 32.8901C54.8996 31.6607 54.6919 30.3362 54.789 28.9439C54.8686 27.8192 55.2413 26.7837 55.8004 25.8121C57.6621 22.5776 59.5238 19.3431 61.3913 16.1105C61.0671 15.5501 60.7429 14.9897 60.4168 14.4293C59.6752 13.1591 58.6599 12.1605 57.3068 11.5399C56.3342 11.0939 55.3054 10.9291 54.2454 10.9291C52.0751 10.9272 49.9047 10.9291 47.7343 10.9291C45.562 10.9291 43.3936 10.933 41.2233 10.9291C40.3225 10.9272 39.4586 11.0784 38.618 11.4178C37.133 12.0189 35.8925 12.9167 35.081 14.3226C34.7355 14.9199 34.3919 15.5171 34.0483 16.1144C35.8148 19.1531 37.5736 22.1956 39.3344 25.2382C39.6314 25.752 39.9634 26.2582 40.175 26.8089C40.9282 28.7713 40.8699 30.724 39.9051 32.605C39.3868 33.6153 38.7889 34.583 38.222 35.5661C36.8262 37.9804 35.4285 40.3907 34.0288 42.8031C34.3724 43.3964 34.7064 43.9898 35.05 44.5832C35.6925 45.6924 36.6282 46.4875 37.7464 47.0925C38.8199 47.6742 39.9439 48.0019 41.1883 47.9942C45.5251 47.967 49.8581 47.9806 54.1949 47.9864C55.0258 47.9864 55.8198 47.8546 56.5982 47.5598C58.2095 46.9509 59.5315 45.993 60.4071 44.4785C60.7313 43.92 61.0535 43.3615 61.3777 42.8031C61.335 42.7274 61.2903 42.6518 61.2476 42.5762C59.3743 39.3455 57.5068 36.1149 55.6218 32.892" fill="#804F99"/>
<path d="M67.2462 32.6011C68.211 30.7202 68.2693 28.7674 67.5161 26.805C67.3064 26.2543 66.9725 25.7501 66.6755 25.2362C64.9167 22.1937 63.1579 19.1492 61.3894 16.1105C59.5238 19.3431 57.6601 22.5776 55.7984 25.8121C55.2374 26.7837 54.8647 27.8172 54.787 28.9439C54.69 30.3362 54.8977 31.6606 55.616 32.8881C57.501 36.111 59.3685 39.3436 61.2418 42.5723C61.2845 42.6479 61.3292 42.7235 61.3719 42.7992C62.7696 40.3888 64.1673 37.9765 65.5631 35.5642C66.1319 34.581 66.7298 33.6114 67.2462 32.6011Z" fill="#633088"/>
<path d="M28.2712 32.8901C27.5529 31.6606 27.3452 30.3362 27.4422 28.9439C27.5218 27.8192 27.8946 26.7837 28.4536 25.8121C30.3153 22.5776 32.177 19.3431 34.0446 16.1105C33.7204 15.5501 33.3942 14.9897 33.0681 14.4293C32.3285 13.1591 31.3112 12.1605 29.9581 11.5399C28.9856 11.0939 27.9567 10.9291 26.8967 10.9291C24.7264 10.9272 22.556 10.9291 20.3856 10.9291C18.2133 10.9291 16.0449 10.933 13.8746 10.9291C12.9738 10.9272 12.1099 11.0784 11.2694 11.4178C9.78428 12.0189 8.54379 12.9167 7.73234 14.3226C5.51733 18.1505 3.31396 21.9842 1.10866 25.816C0.549571 26.7875 0.176843 27.8231 0.0972506 28.9478C0.000186257 30.3401 0.207904 31.6645 0.926181 32.894C2.81117 36.1168 4.67869 39.3475 6.55203 42.5781C6.94029 43.2452 7.31496 43.9181 7.70127 44.5851C8.34384 45.6943 9.27954 46.4894 10.3977 47.0944C11.4713 47.6762 12.5953 48.0039 13.8396 47.9961C18.1765 47.969 22.5094 47.9825 26.8463 47.9884C27.6771 47.9884 28.4711 47.8565 29.2496 47.5617C30.8608 46.9529 32.1829 45.9949 33.0584 44.4804C33.3826 43.9219 33.7048 43.3635 34.029 42.805C33.9863 42.7294 33.9417 42.6537 33.899 42.5781C32.0256 39.3475 30.1562 36.1168 28.2731 32.894" fill="#424C86"/>
<path d="M39.9012 32.6011C40.866 30.7202 40.9243 28.7674 40.1711 26.805C39.9614 26.2543 39.6275 25.7501 39.3305 25.2362C37.5717 22.1937 35.8129 19.1492 34.0444 16.1105C32.1788 19.3431 30.3152 22.5776 28.4535 25.8121C27.8924 26.7837 27.5197 27.8172 27.442 28.9439C27.345 30.3362 27.5527 31.6606 28.271 32.8881C30.156 36.111 32.0235 39.3436 33.8968 42.5723C33.9395 42.6479 33.9842 42.7235 34.0269 42.7992C35.4246 40.3888 36.8223 37.9765 38.2181 35.5642C38.7869 34.581 39.3848 33.6114 39.9012 32.6011Z" fill="#2A2F72"/>
<path d="M74.9493 2.31923L76.9371 5.32881C76.974 5.38504 76.9896 5.44709 76.9896 5.51303C76.9896 5.68367 76.9197 5.83105 76.7799 5.94934C76.6401 6.06956 76.4945 6.12774 76.3431 6.12774C76.1995 6.12774 76.0791 6.08508 75.982 5.99782C75.885 5.91055 75.7976 5.80778 75.718 5.68367L74.0446 3.18216L72.8468 4.35729V5.51303C72.8468 5.67786 72.7847 5.82135 72.6624 5.94352C72.5401 6.06763 72.3965 6.12774 72.2295 6.12774C72.0626 6.12774 71.9228 6.06763 71.8024 5.94352C71.684 5.82329 71.6238 5.67979 71.6238 5.51303V0.614711C71.6238 0.449882 71.684 0.306385 71.8024 0.182278C71.9228 0.0601114 72.0626 -0.00194168 72.2295 -0.00194168C72.3965 -0.00194168 72.5382 0.0601114 72.6624 0.182278C72.7867 0.304445 72.8468 0.447943 72.8468 0.614711V2.67604L75.2987 0.290871C75.4055 0.184218 75.4986 0.10859 75.5744 0.0639897C75.6501 0.0213282 75.7588 -2.52202e-06 75.9024 -2.52202e-06C75.9743 -2.52202e-06 76.0519 0.0174499 76.1334 0.0484765C76.2169 0.0814421 76.2907 0.124104 76.3548 0.1784C76.4208 0.232697 76.4751 0.296689 76.5159 0.372316C76.5605 0.447943 76.5819 0.529388 76.5819 0.61665C76.5819 0.672886 76.5644 0.738817 76.5275 0.810566L74.9512 2.32117L74.9493 2.31923Z" fill="#262F66"/>
<path d="M79.5404 6.1258C79.3754 6.1258 79.2317 6.06375 79.1133 5.94158C78.9949 5.82135 78.9347 5.67592 78.9347 5.50915V0.612772C78.9347 0.447943 78.9949 0.304445 79.1133 0.182278C79.2317 0.0601114 79.3734 -0.00194168 79.5404 -0.00194168H82.662C82.8056 -0.00194168 82.9318 0.0542939 83.0386 0.164826C83.1473 0.275358 83.2017 0.407221 83.2017 0.558475C83.2017 0.701973 83.1473 0.829957 83.0386 0.94049C82.9318 1.05102 82.8056 1.10726 82.662 1.10726H80.1558V2.60623H82.066C82.2097 2.60623 82.3358 2.66052 82.4387 2.76718C82.5436 2.87577 82.596 3.00182 82.596 3.14531C82.596 3.28881 82.5436 3.41486 82.4387 3.52345C82.3358 3.6301 82.2097 3.6844 82.066 3.6844H80.1558V5.01078H82.662C82.8056 5.01078 82.9318 5.06702 83.0386 5.17755C83.1473 5.28808 83.2017 5.41995 83.2017 5.5712C83.2017 5.7147 83.1473 5.84268 83.0386 5.95322C82.9318 6.06375 82.8056 6.11998 82.662 6.11998H79.5404V6.1258Z" fill="#262F66"/>
<path d="M85.6302 1.1092C85.4865 1.1092 85.3604 1.05296 85.2516 0.942431C85.1429 0.831899 85.0886 0.703915 85.0886 0.560417C85.0886 0.409163 85.1429 0.2773 85.2516 0.166768C85.3584 0.0562356 85.4865 0 85.6302 0H89.3342C89.4778 0 89.604 0.0562356 89.7127 0.166768C89.8195 0.2773 89.8739 0.409163 89.8739 0.560417C89.8739 0.703915 89.8195 0.831899 89.7127 0.942431C89.604 1.05296 89.4778 1.1092 89.3342 1.1092H88.0917V5.50915C88.0917 5.67398 88.0296 5.81942 87.9073 5.94158C87.785 6.06375 87.6414 6.1258 87.4744 6.1258C87.3075 6.1258 87.1658 6.06375 87.0473 5.94158C86.9289 5.82135 86.8687 5.67592 86.8687 5.50915V1.1092H85.6263H85.6302Z" fill="#262F66"/>
<path d="M92.5315 6.1258C92.3665 6.1258 92.2228 6.06375 92.1044 5.94158C91.986 5.82135 91.9258 5.67592 91.9258 5.50915V0.612772C91.9258 0.447943 91.986 0.304445 92.1044 0.182278C92.2228 0.0601114 92.3645 -0.00194168 92.5315 -0.00194168H95.6531C95.7987 -0.00194168 95.9229 0.0542939 96.0316 0.164826C96.1403 0.275358 96.1947 0.407221 96.1947 0.558475C96.1947 0.701973 96.1403 0.829957 96.0316 0.94049C95.9249 1.05102 95.7987 1.10726 95.6531 1.10726H93.1488V2.60623H95.0591C95.2027 2.60623 95.3289 2.66052 95.4318 2.76718C95.5366 2.87577 95.589 3.00182 95.589 3.14531C95.589 3.28881 95.5366 3.41486 95.4318 3.52345C95.3289 3.6301 95.2027 3.6844 95.0591 3.6844H93.1488V5.01078H95.6531C95.7987 5.01078 95.9229 5.06702 96.0316 5.17755C96.1403 5.28808 96.1947 5.41995 96.1947 5.5712C96.1947 5.7147 96.1403 5.84268 96.0316 5.95322C95.9249 6.06375 95.7987 6.11998 95.6531 6.11998H92.5315V6.1258Z" fill="#262F66"/>
<path d="M98.5145 0.614711C98.5145 0.449882 98.5747 0.306385 98.6931 0.182278C98.8115 0.0601114 98.9533 -0.00194168 99.1202 -0.00194168C99.1765 -0.00194168 99.2425 0.00775411 99.3143 0.0252065C99.3862 0.042659 99.4502 0.0775638 99.5104 0.126043L102.578 2.56357V0.614711C102.578 0.449882 102.636 0.306385 102.754 0.182278C102.873 0.0601114 103.014 -0.00194168 103.181 -0.00194168C103.348 -0.00194168 103.49 0.0601114 103.614 0.182278C103.737 0.304445 103.799 0.447943 103.799 0.614711V5.51303C103.799 5.67785 103.737 5.82135 103.614 5.94546C103.492 6.06763 103.348 6.12968 103.181 6.12968C103.014 6.12968 102.873 6.06763 102.754 5.94546C102.636 5.82329 102.578 5.67979 102.578 5.51303V4.07805L99.7375 1.88874V5.51497C99.7375 5.67979 99.6754 5.82329 99.5531 5.9474C99.4308 6.06956 99.2872 6.13162 99.1202 6.13162C98.9533 6.13162 98.8115 6.06956 98.6931 5.9474C98.5747 5.82523 98.5145 5.68173 98.5145 5.51497V0.614711Z" fill="#262F66"/>
<path d="M106.883 6.12774C106.718 6.12774 106.575 6.06569 106.456 5.94352C106.338 5.82135 106.278 5.67785 106.278 5.51109V0.614711C106.278 0.449882 106.338 0.306385 106.456 0.182278C106.575 0.0601114 106.716 -0.00194168 106.883 -0.00194168H109.032C109.285 -0.00194168 109.522 0.0465373 109.745 0.143495C109.97 0.240453 110.162 0.372316 110.329 0.537144C110.496 0.701973 110.626 0.895889 110.723 1.11307C110.82 1.3322 110.869 1.56878 110.869 1.82087C110.869 2.07296 110.824 2.29596 110.735 2.51121C110.644 2.72645 110.519 2.91843 110.362 3.08326C110.514 3.24809 110.634 3.43231 110.725 3.63786C110.815 3.84341 110.859 4.06835 110.859 4.31269C110.859 4.55702 110.813 4.79942 110.714 5.01854C110.617 5.23767 110.485 5.43158 110.32 5.59641C110.155 5.76124 109.96 5.89116 109.743 5.98424C109.524 6.07732 109.287 6.1258 109.034 6.1258H106.885L106.883 6.12774ZM107.499 2.52284H108.957C109.151 2.52284 109.316 2.45497 109.454 2.31535C109.59 2.17573 109.659 2.01284 109.659 1.82862C109.659 1.6444 109.592 1.48151 109.454 1.3419C109.318 1.20228 109.151 1.13247 108.957 1.13247H107.499V2.52284ZM108.945 5.03599C109.141 5.03599 109.308 4.96231 109.446 4.81493C109.588 4.66755 109.656 4.50079 109.656 4.31463C109.656 4.15561 109.609 4.0063 109.516 3.86668C109.423 3.72706 109.296 3.65725 109.137 3.65725H107.495V5.03793H108.941L108.945 5.03599Z" fill="#262F66"/>
<path d="M114.346 3.41873C114.346 3.97915 114.447 4.39995 114.649 4.68113C114.85 4.96037 115.204 5.10192 115.707 5.10192C116.209 5.10192 116.565 4.96037 116.767 4.68113C116.966 4.39995 117.069 3.97915 117.069 3.41873V0.612772C117.069 0.447943 117.128 0.304445 117.248 0.180339C117.366 0.0581722 117.508 -0.00194168 117.675 -0.00194168C117.842 -0.00194168 117.984 0.0581722 118.108 0.180339C118.23 0.302506 118.29 0.447943 118.29 0.612772V3.41873C118.29 4.26809 118.075 4.93904 117.642 5.43546C117.209 5.93188 116.563 6.1801 115.699 6.1801C114.835 6.1801 114.198 5.92995 113.771 5.43546C113.342 4.93904 113.127 4.26809 113.127 3.41873V0.612772C113.127 0.447943 113.187 0.304445 113.305 0.180339C113.426 0.0581722 113.565 -0.00194168 113.732 -0.00194168C113.899 -0.00194168 114.041 0.0581722 114.165 0.180339C114.288 0.302506 114.35 0.447943 114.35 0.612772V3.41873H114.346Z" fill="#262F66"/>
<path d="M125.167 5.31717C125.201 5.38892 125.219 5.45291 125.219 5.51303C125.219 5.68561 125.147 5.83105 125.003 5.94934C124.86 6.06956 124.712 6.12774 124.561 6.12774C124.409 6.12774 124.295 6.08702 124.192 6.00363C124.091 5.92219 124.006 5.81554 123.932 5.68561L123.004 3.88413H121.979V5.51303C121.979 5.67786 121.917 5.82135 121.794 5.94546C121.672 6.06569 121.529 6.12774 121.362 6.12774C121.195 6.12774 121.053 6.06569 120.934 5.94546C120.816 5.82329 120.756 5.67786 120.756 5.51303V0.614711C120.756 0.449882 120.816 0.306385 120.934 0.182278C121.053 0.0601114 121.195 -0.00194168 121.362 -0.00194168H123.652C123.905 -0.00194168 124.142 0.0465373 124.365 0.143495C124.588 0.240453 124.782 0.374255 124.949 0.54684C125.116 0.719425 125.246 0.924976 125.343 1.16155C125.44 1.39813 125.489 1.65798 125.489 1.93916C125.489 2.36383 125.384 2.73421 125.176 3.05029C124.967 3.36638 124.697 3.59714 124.365 3.74064L125.165 5.31523L125.167 5.31717ZM123.569 2.74972C123.763 2.74972 123.928 2.67798 124.066 2.53642C124.202 2.39486 124.272 2.199 124.272 1.95079C124.272 1.70258 124.202 1.50478 124.066 1.35547C123.93 1.20615 123.763 1.13247 123.569 1.13247H121.981V2.74972H123.569Z" fill="#262F66"/>
<path d="M128.255 6.1258C128.09 6.1258 127.946 6.06375 127.828 5.94158C127.71 5.82135 127.649 5.67592 127.649 5.50915V0.612772C127.649 0.447943 127.71 0.304445 127.828 0.182278C127.946 0.0601114 128.088 -0.00194168 128.255 -0.00194168H131.377C131.52 -0.00194168 131.646 0.0542939 131.753 0.164826C131.862 0.275358 131.916 0.407221 131.916 0.558475C131.916 0.701973 131.862 0.829957 131.753 0.94049C131.646 1.05102 131.52 1.10726 131.377 1.10726H128.87V2.60623H130.781C130.924 2.60623 131.051 2.66052 131.153 2.76718C131.258 2.87577 131.311 3.00182 131.311 3.14531C131.311 3.28881 131.258 3.41486 131.153 3.52345C131.051 3.6301 130.924 3.6844 130.781 3.6844H128.87V5.01078H131.377C131.52 5.01078 131.646 5.06702 131.753 5.17755C131.862 5.28808 131.916 5.41995 131.916 5.5712C131.916 5.7147 131.862 5.84268 131.753 5.95322C131.646 6.06375 131.52 6.11998 131.377 6.11998H128.255V6.1258Z" fill="#262F66"/>
<path d="M139.582 5.48976C139.59 5.51109 139.594 5.54599 139.594 5.59641C139.594 5.769 139.526 5.90086 139.388 5.99006C139.252 6.0812 139.105 6.1258 138.946 6.1258C138.829 6.1258 138.722 6.09671 138.622 6.03854C138.521 5.9823 138.441 5.9028 138.385 5.80002L137.876 4.79748H135.415L134.906 5.80002C134.85 5.90086 134.77 5.98036 134.669 6.03854C134.568 6.09671 134.459 6.1258 134.345 6.1258C134.186 6.1258 134.038 6.0812 133.902 5.99006C133.766 5.89892 133.697 5.769 133.697 5.59641C133.697 5.54599 133.698 5.50915 133.706 5.48976L136.416 0.149313C136.453 0.0484765 136.527 -0.00194168 136.643 -0.00194168C136.76 -0.00194168 136.834 0.0504156 136.871 0.149313L139.581 5.48976H139.582ZM137.327 3.70961L136.647 2.35026L135.968 3.70961H137.329H137.327Z" fill="#262F66"/>
<path d="M142.597 3.41873C142.597 3.97915 142.698 4.39995 142.9 4.68113C143.102 4.96037 143.455 5.10192 143.958 5.10192C144.461 5.10192 144.816 4.96037 145.018 4.68113C145.218 4.39995 145.321 3.97915 145.321 3.41873V0.612772C145.321 0.447943 145.379 0.304445 145.5 0.180339C145.618 0.0581722 145.76 -0.00194168 145.927 -0.00194168C146.094 -0.00194168 146.235 0.0581722 146.36 0.180339C146.48 0.302506 146.542 0.447943 146.542 0.612772V3.41873C146.542 4.26809 146.327 4.93904 145.894 5.43546C145.461 5.93188 144.814 6.1801 143.95 6.1801C143.087 6.1801 142.45 5.92995 142.023 5.43546C141.594 4.93904 141.378 4.26809 141.378 3.41873V0.612772C141.378 0.447943 141.438 0.304445 141.557 0.180339C141.677 0.0581722 141.817 -0.00194168 141.984 -0.00194168C142.151 -0.00194168 142.293 0.0581722 142.417 0.180339C142.539 0.302506 142.601 0.447943 142.601 0.612772V3.41873H142.597Z" fill="#262F66"/>
<path d="M19.2052 24.7379C19.2052 24.4644 19.3022 24.2279 19.4983 24.0262C19.6944 23.8264 19.9273 23.7237 20.201 23.7237C20.4748 23.7237 20.7116 23.8245 20.9135 24.0262C21.1154 24.2279 21.2163 24.4644 21.2163 24.7379V32.8106C21.2163 33.084 21.1154 33.3206 20.9135 33.5222C20.7116 33.7239 20.4748 33.8247 20.201 33.8247C19.9273 33.8247 19.6944 33.7239 19.4983 33.5222C19.3022 33.3206 19.2052 33.084 19.2052 32.8106V24.7379Z" fill="white"/>
<path d="M26.7354 31.2457C26.4986 31.2457 26.2909 31.1545 26.1123 30.9703C25.9337 30.7861 25.8444 30.5767 25.8444 30.3401C25.8444 30.0899 25.9337 29.8747 26.1123 29.6905C26.2909 29.5082 26.4986 29.417 26.7354 29.417H31.1849C31.4217 29.417 31.6294 29.5082 31.808 29.6905C31.9847 29.8747 32.074 30.0919 32.074 30.3401C32.074 30.5883 31.9847 30.7861 31.808 30.9703C31.6294 31.1545 31.4217 31.2457 31.1849 31.2457H26.7354Z" fill="white"/>
<path d="M42.3628 25.911C42.2444 25.8742 42.0949 25.8296 41.9182 25.7772C41.7396 25.7249 41.5475 25.6745 41.3397 25.626C41.132 25.5775 40.9262 25.5368 40.7243 25.4999C40.5225 25.465 40.338 25.4476 40.173 25.4476C39.7809 25.4476 39.4761 25.498 39.2567 25.5988C39.0374 25.6997 38.8743 25.8141 38.7675 25.9363C38.6608 26.0623 38.5986 26.1883 38.5812 26.3183C38.5637 26.4482 38.554 26.5374 38.554 26.5839C38.554 26.8923 38.6841 27.1405 38.9461 27.3324C39.2063 27.5225 39.5305 27.6951 39.9168 27.8483C40.3031 28.0034 40.7243 28.1566 41.1806 28.3098C41.6368 28.4649 42.058 28.6627 42.4443 28.9051C42.8287 29.1494 43.1529 29.4539 43.415 29.8204C43.6751 30.1888 43.8052 30.6562 43.8052 31.2243C43.8052 31.6393 43.6965 32.0116 43.4771 32.3432C43.2577 32.6768 42.9801 32.9579 42.6501 33.1887C42.3181 33.4195 41.9532 33.5959 41.5552 33.722C41.1573 33.8461 40.7806 33.9081 40.4254 33.9081C39.8799 33.9081 39.313 33.8713 38.7248 33.8015C38.1386 33.7297 37.5775 33.5591 37.0417 33.2857C36.8515 33.2255 36.7039 33.117 36.5972 32.9579C36.4904 32.797 36.436 32.6167 36.436 32.415C36.436 32.2017 36.5118 31.9981 36.6671 31.8022C36.8224 31.6064 37.0107 31.5094 37.2378 31.5094C37.298 31.5094 37.3446 31.521 37.3795 31.5443C37.5698 31.651 37.9134 31.7751 38.4123 31.9186C38.9112 32.0601 39.4975 32.1319 40.175 32.1319C40.3904 32.1319 40.5923 32.1047 40.7904 32.0504C40.9864 31.9981 41.1573 31.9244 41.3067 31.8294C41.4543 31.7324 41.5766 31.6199 41.6717 31.49C41.7668 31.3601 41.8134 31.2224 41.8134 31.0808C41.8134 30.8074 41.6833 30.5844 41.4213 30.4118C41.1592 30.2392 40.835 30.0822 40.4429 29.9406C40.0507 29.7991 39.6295 29.6497 39.1791 29.4946C38.7268 29.3395 38.3074 29.1378 37.9153 28.8896C37.5232 28.6394 37.197 28.3253 36.9369 27.9452C36.6748 27.5651 36.5448 27.0784 36.5448 26.4831C36.5448 25.5678 36.8534 24.8561 37.4707 24.3461C38.0881 23.8342 38.9714 23.5782 40.1225 23.5782C40.5729 23.5782 41.0194 23.6345 41.4582 23.7489C41.8969 23.8614 42.2716 23.9738 42.5783 24.0805C42.7802 24.1522 42.9413 24.2763 43.0597 24.4489C43.1781 24.6234 43.2383 24.8115 43.2383 25.0132C43.2383 25.242 43.1471 25.4476 42.9627 25.6318C42.7782 25.816 42.5802 25.9072 42.3667 25.9072" fill="white"/>
<path d="M52.6516 23.5996C53.3621 23.5996 54.0338 23.7353 54.6628 24.0087C55.2918 24.2821 55.8373 24.6486 56.3012 25.1121C56.7633 25.5736 57.1321 26.1185 57.4058 26.7468C57.6776 27.377 57.8135 28.0461 57.8135 28.7577C57.8135 29.4694 57.6776 30.1365 57.4058 30.7667C57.1321 31.395 56.7652 31.9399 56.3012 32.4033C55.8392 32.8649 55.2918 33.2333 54.6628 33.5048C54.0338 33.7782 53.3621 33.914 52.6516 33.914C51.9411 33.914 51.2694 33.7782 50.6404 33.5048C50.0095 33.2333 49.466 32.8649 49.002 32.4033C48.54 31.9418 48.1711 31.395 47.8974 30.7667C47.6237 30.1365 47.4878 29.4675 47.4878 28.7577C47.4878 28.048 47.6237 27.377 47.8974 26.7468C48.1711 26.1185 48.538 25.5736 49.002 25.1121C49.464 24.6486 50.0095 24.2821 50.6404 24.0087C51.2694 23.7353 51.9392 23.5996 52.6516 23.5996ZM52.6322 32.1338C53.0942 32.1338 53.5194 32.0465 53.9057 31.8759C54.292 31.7033 54.6259 31.4667 54.9113 31.1642C55.1947 30.8617 55.4141 30.5107 55.5694 30.1054C55.7247 29.704 55.8004 29.2697 55.8004 28.8081C55.8004 28.3466 55.7247 27.9123 55.5694 27.5108C55.4141 27.1075 55.1966 26.7546 54.9113 26.4521C54.6259 26.1496 54.292 25.9091 53.9057 25.7307C53.5194 25.5542 53.0962 25.465 52.6322 25.465C52.1682 25.465 51.745 25.5542 51.3587 25.7307C50.9724 25.9091 50.6443 26.1496 50.3706 26.4521C50.0969 26.7546 49.8833 27.1056 49.73 27.5108C49.5766 27.9123 49.499 28.3466 49.499 28.8081C49.499 29.2697 49.5766 29.704 49.73 30.1054C49.8853 30.5088 50.0988 30.8617 50.3706 31.1642C50.6424 31.4667 50.9724 31.7033 51.3587 31.8759C51.7431 32.0465 52.1682 32.1338 52.6322 32.1338Z" fill="white"/>
<path d="M69.5952 24.4702C69.7252 24.5536 69.8417 24.6719 69.9427 24.8251C70.0436 24.9802 70.0941 25.1393 70.0941 25.306C70.0941 25.5678 69.997 25.7889 69.8087 25.9731C69.6204 26.1573 69.401 26.2485 69.1506 26.2485C69.0904 26.2485 69.0303 26.2426 68.972 26.231C68.9118 26.2194 68.8536 26.2019 68.7934 26.1786C68.4964 25.9653 68.1683 25.7928 67.8053 25.6628C67.4442 25.5329 67.0676 25.467 66.6755 25.467C66.2135 25.467 65.7883 25.5562 65.402 25.7346C65.0157 25.911 64.6876 26.1515 64.4139 26.454C64.1402 26.7565 63.9266 27.1075 63.7733 27.5128C63.618 27.9142 63.5422 28.3486 63.5422 28.8101C63.5422 29.2716 63.618 29.706 63.7733 30.1074C63.9286 30.5107 64.1421 30.8637 64.4139 31.1662C64.6876 31.4687 65.0157 31.7072 65.402 31.8778C65.7864 32.0504 66.2115 32.1357 66.6755 32.1357C67.1394 32.1357 67.5704 32.0504 67.9742 31.8778C68.376 31.7072 68.7332 31.4784 69.0419 31.1933C69.1972 31.075 69.3797 31.0168 69.5932 31.0168C69.8437 31.0168 70.0533 31.1041 70.2242 31.2748C70.3969 31.4454 70.4843 31.6568 70.4843 31.905C70.4843 32.0717 70.4416 32.2191 70.3581 32.351C70.2766 32.4809 70.1679 32.5876 70.0378 32.669C69.5874 33.0491 69.0749 33.3516 68.4984 33.5765C67.9218 33.8015 67.32 33.914 66.691 33.914C65.9805 33.914 65.3088 33.7782 64.6798 33.5067C64.0509 33.2333 63.5054 32.8668 63.0414 32.4033C62.5794 31.9418 62.2105 31.395 61.9387 30.7667C61.665 30.1384 61.5291 29.4694 61.5291 28.7577C61.5291 28.0461 61.665 27.377 61.9387 26.7488C62.2105 26.1205 62.5794 25.5756 63.0414 25.1121C63.5054 24.6506 64.0509 24.2821 64.6798 24.0087C65.3088 23.7353 65.9805 23.5996 66.691 23.5996C67.2249 23.5996 67.7393 23.6771 68.2305 23.8303C68.7216 23.9855 69.1778 24.1988 69.5913 24.4702" fill="white"/>
<path d="M74.4717 24.7379C74.4717 24.4644 74.5687 24.2279 74.7648 24.0262C74.9609 23.8264 75.1938 23.7237 75.4676 23.7237C75.7413 23.7237 75.9781 23.8245 76.18 24.0262C76.3819 24.2279 76.4829 24.4644 76.4829 24.7379V32.8106C76.4829 33.084 76.3819 33.3206 76.18 33.5222C75.9781 33.7239 75.7413 33.8247 75.4676 33.8247C75.1938 33.8247 74.9609 33.7239 74.7648 33.5222C74.5687 33.3206 74.4717 33.084 74.4717 32.8106V24.7379Z" fill="white"/>
<path d="M89.9224 32.7737C89.934 32.8106 89.9399 32.8687 89.9399 32.9521C89.9399 33.2352 89.8273 33.4524 89.6021 33.6017C89.3769 33.7511 89.1342 33.8247 88.8741 33.8247C88.6839 33.8247 88.5053 33.7782 88.3402 33.6813C88.1733 33.5862 88.0432 33.4563 87.9481 33.2915L87.1114 31.6374H83.0541L82.2174 33.2915C82.1204 33.4563 81.9922 33.5862 81.8253 33.6813C81.6583 33.7782 81.4797 33.8247 81.2895 33.8247C81.0294 33.8247 80.7867 33.7511 80.5615 33.6017C80.3363 33.4544 80.2237 33.2372 80.2237 32.9521C80.2237 32.8687 80.2295 32.8106 80.2412 32.7737L84.7081 23.9738C84.7683 23.8071 84.8925 23.7237 85.0808 23.7237C85.2691 23.7237 85.3953 23.8051 85.4555 23.9738L89.9224 32.7737ZM86.2029 29.8398L85.0808 27.6001L83.9607 29.8398H86.2029Z" fill="white"/>
<path d="M102.488 32.7737C102.5 32.8106 102.506 32.8687 102.506 32.9521C102.506 33.2352 102.393 33.4524 102.168 33.6017C101.943 33.7511 101.7 33.8247 101.44 33.8247C101.25 33.8247 101.071 33.7782 100.904 33.6813C100.739 33.5862 100.609 33.4563 100.514 33.2915L99.6774 31.6374H95.6201L94.7834 33.2915C94.6883 33.4563 94.5582 33.5862 94.3913 33.6813C94.2262 33.7782 94.0476 33.8247 93.8574 33.8247C93.5973 33.8247 93.3527 33.7511 93.1294 33.6017C92.9042 33.4544 92.7916 33.2372 92.7916 32.9521C92.7916 32.8687 92.7974 32.8106 92.8091 32.7737L97.276 23.9738C97.3362 23.8071 97.4604 23.7237 97.6487 23.7237C97.837 23.7237 97.9632 23.8051 98.0234 23.9738L102.49 32.7737H102.488ZM98.7689 29.8398L97.6468 27.6001L96.5267 29.8398H98.7689Z" fill="white"/>
<path d="M107.241 33.8228C106.967 33.8228 106.734 33.722 106.538 33.5203C106.342 33.3186 106.245 33.082 106.245 32.8086V24.7359C106.245 24.4625 106.342 24.2259 106.538 24.0242C106.734 23.8226 106.967 23.7217 107.241 23.7217C107.514 23.7217 107.751 23.8226 107.953 24.0242C108.153 24.2259 108.256 24.4625 108.256 24.7359V32.0252H112.385C112.622 32.0252 112.83 32.1144 113.008 32.2928C113.187 32.4693 113.274 32.6845 113.274 32.9327C113.274 33.1809 113.187 33.3787 113.008 33.5571C112.83 33.7336 112.622 33.8228 112.385 33.8228H107.241Z" fill="white"/>
<path d="M124.114 33.8228C123.841 33.8228 123.608 33.722 123.412 33.5203C123.215 33.3186 123.118 33.082 123.118 32.8086V24.7359C123.118 24.4625 123.215 24.2259 123.412 24.0242C123.608 23.8226 123.841 23.7217 124.114 23.7217H126.766C127.479 23.7217 128.131 23.8517 128.725 24.1134C129.317 24.3733 129.831 24.7359 130.264 25.1974C130.697 25.6589 131.033 26.2 131.27 26.8147C131.507 27.4313 131.625 28.0965 131.625 28.8062C131.625 29.5159 131.507 30.1772 131.27 30.788C131.033 31.3969 130.697 31.9282 130.264 32.3781C129.831 32.83 129.317 33.1809 128.725 33.4369C128.131 33.6909 127.479 33.8189 126.766 33.8189H124.114V33.8228ZM126.446 32.0271C126.908 32.0271 127.333 31.9515 127.719 31.7983C128.106 31.6432 128.44 31.426 128.725 31.141C129.008 30.8578 129.23 30.5243 129.383 30.1403C129.538 29.7564 129.614 29.3337 129.614 28.8721C129.614 28.4106 129.538 27.9801 129.383 27.5768C129.23 27.1754 129.01 26.8283 128.725 26.5393C128.44 26.2504 128.106 26.0196 127.719 25.849C127.335 25.6783 126.91 25.5911 126.446 25.5911H125.13V32.0271H126.446Z" fill="white"/>
<path d="M140.258 23.5996C140.971 23.5996 141.64 23.7353 142.269 24.0087C142.898 24.2821 143.444 24.6486 143.908 25.1121C144.37 25.5736 144.739 26.1185 145.012 26.7468C145.284 27.377 145.42 28.0461 145.42 28.7577C145.42 29.4694 145.284 30.1365 145.012 30.7667C144.739 31.395 144.372 31.9399 143.908 32.4033C143.446 32.8649 142.898 33.2333 142.269 33.5048C141.64 33.7782 140.971 33.914 140.258 33.914C139.546 33.914 138.876 33.7782 138.247 33.5048C137.616 33.2333 137.072 32.8649 136.608 32.4033C136.146 31.9418 135.778 31.395 135.504 30.7667C135.23 30.1365 135.094 29.4675 135.094 28.7577C135.094 28.048 135.23 27.377 135.504 26.7468C135.778 26.1185 136.144 25.5736 136.608 25.1121C137.07 24.6486 137.616 24.2821 138.247 24.0087C138.876 23.7353 139.546 23.5996 140.258 23.5996ZM140.241 32.1338C140.703 32.1338 141.128 32.0465 141.514 31.8759C141.9 31.7033 142.234 31.4667 142.52 31.1642C142.803 30.8617 143.024 30.5107 143.178 30.1054C143.333 29.704 143.409 29.2697 143.409 28.8081C143.409 28.3466 143.333 27.9123 143.178 27.5108C143.024 27.1075 142.805 26.7546 142.52 26.4521C142.234 26.1496 141.9 25.9091 141.514 25.7307C141.128 25.5542 140.705 25.465 140.241 25.465C139.777 25.465 139.353 25.5542 138.967 25.7307C138.581 25.9091 138.253 26.1496 137.979 26.4521C137.705 26.7546 137.492 27.1056 137.338 27.5108C137.185 27.9123 137.107 28.3466 137.107 28.8081C137.107 29.2697 137.185 29.704 137.338 30.1054C137.494 30.5088 137.707 30.8617 137.979 31.1642C138.251 31.4667 138.581 31.7033 138.967 31.8759C139.351 32.0465 139.777 32.1338 140.241 32.1338Z" fill="white"/>
<path d="M154.48 31.1022C154.278 31.1022 154.107 31.0207 153.964 30.852L151.615 28.3447V32.8086C151.615 33.082 151.514 33.3186 151.312 33.5203C151.11 33.722 150.873 33.8228 150.599 33.8228C150.326 33.8228 150.093 33.722 149.897 33.5203C149.7 33.3186 149.603 33.082 149.603 32.8086V23.9719C149.664 23.8071 149.788 23.7217 149.976 23.7217C150.071 23.7217 150.151 23.7489 150.215 23.8032C150.281 23.8555 150.343 23.9118 150.403 23.9719L154.14 28.1159C154.2 28.174 154.259 28.2225 154.319 28.2574C154.379 28.2923 154.426 28.3098 154.461 28.3098C154.495 28.3098 154.544 28.2923 154.602 28.2574C154.662 28.2206 154.721 28.174 154.781 28.1159L158.52 23.9719C158.578 23.9118 158.64 23.8555 158.706 23.8032C158.772 23.7489 158.852 23.7217 158.947 23.7217C159.137 23.7217 159.261 23.8051 159.32 23.9719V32.8086C159.32 33.082 159.223 33.3186 159.026 33.5203C158.83 33.722 158.595 33.8228 158.324 33.8228C158.052 33.8228 157.813 33.722 157.611 33.5203C157.409 33.3186 157.308 33.082 157.308 32.8086V28.3447L154.959 30.852C154.818 31.0188 154.657 31.1022 154.478 31.1022" fill="white"/>
<path d="M164.945 33.8228C164.672 33.8228 164.439 33.722 164.243 33.5203C164.047 33.3186 163.95 33.082 163.95 32.8086V24.7359C163.95 24.4625 164.047 24.2259 164.243 24.0242C164.439 23.8226 164.672 23.7217 164.945 23.7217H170.09C170.327 23.7217 170.534 23.8129 170.713 23.9971C170.892 24.1813 170.979 24.3966 170.979 24.6467C170.979 24.8969 170.892 25.0947 170.713 25.2789C170.534 25.4631 170.327 25.5542 170.09 25.5542H165.961V28.0247H169.111C169.35 28.0247 169.554 28.1139 169.727 28.2904C169.898 28.4688 169.985 28.6763 169.985 28.9129C169.985 29.1494 169.898 29.3589 169.727 29.5353C169.554 29.7137 169.35 29.8029 169.111 29.8029H165.961V31.9903H170.09C170.327 31.9903 170.534 32.0814 170.713 32.2637C170.892 32.4479 170.979 32.6651 170.979 32.9133C170.979 33.1616 170.892 33.3593 170.713 33.5436C170.534 33.7278 170.327 33.8189 170.09 33.8189H164.945V33.8228Z" fill="white"/>
<path d="M175.341 24.7379C175.341 24.4644 175.438 24.2279 175.634 24.0262C175.83 23.8264 176.063 23.7237 176.337 23.7237C176.611 23.7237 176.847 23.8245 177.049 24.0262C177.251 24.2279 177.352 24.4644 177.352 24.7379V32.8106C177.352 33.084 177.251 33.3206 177.049 33.5222C176.847 33.7239 176.611 33.8247 176.337 33.8247C176.063 33.8247 175.83 33.7239 175.634 33.5222C175.438 33.3206 175.341 33.084 175.341 32.8106V24.7379Z" fill="white"/>
<path d="M181.98 24.7379C181.98 24.4644 182.077 24.2279 182.273 24.0262C182.469 23.8264 182.702 23.7237 182.976 23.7237C183.071 23.7237 183.178 23.7392 183.296 23.7683C183.415 23.7974 183.522 23.8555 183.617 23.937L188.672 27.9549V24.7379C188.672 24.4644 188.769 24.2279 188.965 24.0262C189.161 23.8264 189.394 23.7237 189.668 23.7237C189.941 23.7237 190.178 23.8245 190.38 24.0262C190.58 24.2279 190.683 24.4644 190.683 24.7379V32.8106C190.683 33.084 190.582 33.3206 190.38 33.5222C190.178 33.7239 189.941 33.8247 189.668 33.8247C189.394 33.8247 189.161 33.7239 188.965 33.5222C188.769 33.3206 188.672 33.084 188.672 32.8106V30.4448L183.989 26.836V32.8106C183.989 33.084 183.889 33.3206 183.687 33.5222C183.485 33.7239 183.248 33.8247 182.974 33.8247C182.7 33.8247 182.467 33.7239 182.271 33.5222C182.075 33.3206 181.978 33.084 181.978 32.8106V24.7379H181.98Z" fill="white"/>
</g>
</g>
<defs>
<clipPath id="clip0_2161_5150">
<rect width="205" height="48" fill="white"/>
</clipPath>
</defs>
</svg>
